<svg xmlns="http://www.w3.org/2000/svg" width="94.266" height="94.26" viewBox="0 0 94.266 94.26">
  <g id="altitude" transform="translate(-13.417 -13.417)">
    <path id="Path_11" data-name="Path 11" d="M60.549,13.417a47.1,47.1,0,0,0-40.98,70.368,1.558,1.558,0,0,0,.105.236,1.44,1.44,0,0,0,.121.157,47.383,47.383,0,0,0,7.175,9.405,1.38,1.38,0,0,0,.392.4,47.426,47.426,0,0,0,9.384,7.223,1.622,1.622,0,0,0,.186.131,1.647,1.647,0,0,0,.164.068,46.858,46.858,0,0,0,11.187,4.647c.013,0,.023.01.036.014s.015,0,.022,0a47.027,47.027,0,0,0,24.412,0h.022a.337.337,0,0,0,.036-.014A46.858,46.858,0,0,0,84,101.4a1.558,1.558,0,0,0,.164-.068,1.622,1.622,0,0,0,.186-.131,47.406,47.406,0,0,0,9.385-7.224,1.392,1.392,0,0,0,.389-.4,47.421,47.421,0,0,0,7.183-9.411,1.355,1.355,0,0,0,.117-.153,1.678,1.678,0,0,0,.1-.229A47.1,47.1,0,0,0,60.549,13.417ZM99.364,80.96l-1.907-1.094a1.631,1.631,0,0,0-1.623,2.829l1.9,1.09a44.114,44.114,0,0,1-5,6.534L91.18,88.773a1.632,1.632,0,1,0-2.306,2.31l1.552,1.546a44.132,44.132,0,0,1-6.513,5.021l-1.095-1.9a1.631,1.631,0,0,0-2.824,1.632l1.1,1.905a43.64,43.64,0,0,1-7.6,3.175l-.576-2.137a1.63,1.63,0,1,0-3.149.848l.572,2.124a43.793,43.793,0,0,1-8.166,1.075v-2.207a1.631,1.631,0,0,0-3.261,0v2.207a43.808,43.808,0,0,1-8.166-1.075l.572-2.124a1.631,1.631,0,1,0-3.149-.848l-.575,2.137a43.606,43.606,0,0,1-7.6-3.175l1.1-1.905a1.631,1.631,0,0,0-2.823-1.632l-1.095,1.9a44.141,44.141,0,0,1-6.513-5.022l1.56-1.545a1.63,1.63,0,1,0-2.3-2.31l-1.552,1.547a44.113,44.113,0,0,1-5-6.534l1.9-1.09a1.631,1.631,0,1,0-1.622-2.829L21.738,80.96a43.87,43.87,0,1,1,77.631,0Z" transform="translate(0 0)" fill="#ef5455"/>
    <path id="Path_12" data-name="Path 12" d="M61.192,22.847A38.345,38.345,0,1,0,99.538,61.192,38.345,38.345,0,0,0,61.192,22.847ZM26.107,61.192a35.063,35.063,0,0,1,.212-3.813h1.318a3.813,3.813,0,1,1,0,7.625H26.318a35.283,35.283,0,0,1-.211-3.812ZM61.192,96.276A35.144,35.144,0,0,1,26.824,68.265h.813a7.081,7.081,0,0,0,6.876-5.442H46.377a1.631,1.631,0,0,0,0-3.261H34.514a7.081,7.081,0,0,0-6.876-5.443h-.812a35.089,35.089,0,0,1,68.735,0h-.813a7.081,7.081,0,0,0-6.876,5.443H76.007a1.631,1.631,0,0,0,0,3.261H87.871a7.081,7.081,0,0,0,6.876,5.442h.813A35.144,35.144,0,0,1,61.192,96.276ZM96.277,61.192A35.282,35.282,0,0,1,96.066,65H94.747a3.813,3.813,0,1,1,0-7.625h1.319A35.3,35.3,0,0,1,96.277,61.192Z" transform="translate(-0.644 -0.643)" fill="#ef5455"/>
    <path id="Path_13" data-name="Path 13" d="M61.051,32.39h5.274a1.631,1.631,0,0,0,0-3.261H61.051a1.631,1.631,0,0,0,0,3.261Z" transform="translate(-3.139 -1.072)" fill="#ef5455"/>
    <path id="Path_14" data-name="Path 14" d="M71.074,35.753H55.551a1.631,1.631,0,0,0,0,3.261H71.074a1.631,1.631,0,1,0,0-3.261Z" transform="translate(-2.764 -1.524)" fill="#ef5455"/>
    <path id="Path_15" data-name="Path 15" d="M66.324,45.638a1.631,1.631,0,0,0,0-3.261H61.051a1.631,1.631,0,0,0,0,3.261Z" transform="translate(-3.139 -1.976)" fill="#ef5455"/>
    <path id="Path_16" data-name="Path 16" d="M71.074,49H55.551a1.631,1.631,0,0,0,0,3.261H71.074a1.631,1.631,0,1,0,0-3.261Z" transform="translate(-2.764 -2.428)" fill="#ef5455"/>
    <path id="Path_17" data-name="Path 17" d="M66.324,58.887a1.631,1.631,0,0,0,0-3.261H61.051a1.631,1.631,0,0,0,0,3.261Z" transform="translate(-3.139 -2.88)" fill="#ef5455"/>
    <path id="Path_18" data-name="Path 18" d="M71.074,62.25H55.551a1.631,1.631,0,1,0,0,3.261H71.074a1.631,1.631,0,1,0,0-3.261Z" transform="translate(-2.764 -3.332)" fill="#ef5455"/>
    <path id="Path_19" data-name="Path 19" d="M66.324,72.135a1.631,1.631,0,1,0,0-3.261H61.051a1.631,1.631,0,0,0,0,3.261Z" transform="translate(-3.139 -3.784)" fill="#ef5455"/>
    <path id="Path_20" data-name="Path 20" d="M71.074,75.5H55.551a1.631,1.631,0,1,0,0,3.261H71.074a1.631,1.631,0,1,0,0-3.261Z" transform="translate(-2.764 -4.236)" fill="#ef5455"/>
    <path id="Path_21" data-name="Path 21" d="M66.324,85.384a1.631,1.631,0,0,0,0-3.261H61.051a1.631,1.631,0,0,0,0,3.261Z" transform="translate(-3.139 -4.688)" fill="#ef5455"/>
    <path id="Path_22" data-name="Path 22" d="M71.074,88.747H55.551a1.631,1.631,0,1,0,0,3.261H71.074a1.631,1.631,0,1,0,0-3.261Z" transform="translate(-2.764 -5.14)" fill="#ef5455"/>
    <path id="Path_23" data-name="Path 23" d="M66.324,95.371H61.051a1.631,1.631,0,0,0,0,3.261h5.274a1.631,1.631,0,1,0,0-3.261Z" transform="translate(-3.139 -5.592)" fill="#ef5455"/>
  </g>
</svg>
