<svg xmlns="http://www.w3.org/2000/svg" width="130.165" height="106.398" viewBox="0 0 130.165 106.398">
  <g id="fighter" transform="matrix(0.848, -0.53, 0.53, 0.848, -82.271, -66.379)">
    <g id="Group_10" data-name="Group 10" transform="translate(0 155.252)">
      <path id="Path_6" data-name="Path 6" d="M120.3,178.39a48.426,48.426,0,0,0-9-3.62l-4.373-3.218a16.6,16.6,0,0,0-12.5-3.05c-6.409,1.006-17.633,2.649-29.2,3.783L48.709,161.219a1.958,1.958,0,0,0-1.09-.331H32.754a1.959,1.959,0,1,0,0,3.918h3.192l3.93,8.669c-1.392-.05-2.716-.13-3.957-.244L18.883,155.84a1.959,1.959,0,0,0-1.4-.588H3.615a1.959,1.959,0,1,0,0,3.918H7.247l4.159,14.346H8.665a1.959,1.959,0,0,0-1.959,1.959v8.286l-6.1,5.822a1.959,1.959,0,0,0,1.353,3.376H9.265a1.962,1.962,0,0,0,.789-.166l14.013-6.17c5.55.751,11.241,1.42,16.957,1.992l-5.078,11.2H31.71a1.959,1.959,0,1,0,0,3.918H47.62a1.96,1.96,0,0,0,1.09-.331l19.218-12.869q7.6.308,14.667.309a226.889,226.889,0,0,0,36.171-2.563,5.262,5.262,0,0,0,1.536-9.89Zm-25.261-6.018a12.708,12.708,0,0,1,9.57,2.335l1.2.881a29.912,29.912,0,0,1-16.513-2.344C91.47,172.924,93.411,172.628,95.041,172.372ZM47.024,164.8h0l12,8.033c-5.164.41-10.236.676-14.816.7l-3.958-8.73Zm-36.4,12.629h1.43v1.223l-1.43,1.365Zm-1.77,11.607h-2l7.919-7.559,10.381.385Zm38.171,10.776H40.248l7.539-16.629H71.858Zm72.232-16.536a1.318,1.318,0,0,1-1.123,1.133c-12.478,2.041-27.47,2.841-44.632,2.388l5.892-3.946a1.959,1.959,0,0,0-1.09-3.587H46.524a1.959,1.959,0,0,0-1.784,1.15l-2.007,4.427c-3.927-.383-7.847-.81-11.721-1.281l3.516-1.548a1.959,1.959,0,0,0-.717-3.75l-17.84-.66v-2.131a1.96,1.96,0,0,0-.077-.545l-4.568-15.76H16.66l16.957,17.31a1.96,1.96,0,0,0,1.194.577c12.4,1.306,33.231-.9,48.125-2.918a33.415,33.415,0,0,0,27.555,4.473,45.21,45.21,0,0,1,8.049,3.276A1.276,1.276,0,0,1,119.257,183.281Z" transform="translate(0 -155.252)" fill="#ef5455"/>
    </g>
  </g>
</svg>
