<svg id="Warstwa_1" data-name="Warstwa 1" xmlns="http://www.w3.org/2000/svg" viewBox="0 0 600 137"><defs><style>.cls-1,.cls-3{font-size:98.52px;font-family:Montserrat-ExtraBold, Montserrat;font-weight:800;}.cls-1,.cls-9{fill:#ef5455;}.cls-2{letter-spacing:0.01em;}.cls-10,.cls-3{fill:#2b3252;}.cls-4{fill:#cfd8dc;}.cls-5{fill:#f5f5f5;}.cls-6{fill:#fad744;}.cls-7{fill:#fdd834;}.cls-8{fill:#ff9801;}</style></defs><text class="cls-1" transform="translate(395.78 99.61)"><tspan class="cls-2">L</tspan><tspan x="60.88" y="0">ab</tspan></text><text class="cls-3" transform="translate(81.26 99.5)">Flight</text><g id="_014---Eagle" data-name="014---Eagle"><g id="Icons"><path id="Shape" class="cls-4" d="M23.77,88a.6.6,0,0,1-.43-1.11C26.71,84.1,34.74,74,33.93,58a47.19,47.19,0,0,1,7.22.8s3.62,0,3.62-2.4c0,0,0-4.54-12.12-8.12A1.2,1.2,0,0,1,31.79,47a4.32,4.32,0,0,0-1.1-3.43,1.22,1.22,0,0,0-.94-.39,40.65,40.65,0,0,0-4.12.36c.62-3.08,3.91-13.6,20.34-13.6,16.94,0,27.37,12.1,29.58,15a.32.32,0,0,1,0,.34.3.3,0,0,1-.31.13l-3-.59a.61.61,0,0,0-.66.32.59.59,0,0,0,.13.72,17.1,17.1,0,0,1,4.06,5.19.32.32,0,0,1-.06.31.31.31,0,0,1-.3.09l-3-.75a.58.58,0,0,0-.54.2.57.57,0,0,0-.11.57c2,4.27,8.39,21.89,6.8,45.56a.6.6,0,0,1-.44.55.61.61,0,0,1-.66-.24,33.48,33.48,0,0,0-10.06-9.91.61.61,0,0,0-.61,0,.58.58,0,0,0-.27.54,11.17,11.17,0,0,1-2.95,7.67.62.62,0,0,1-.59.21.61.61,0,0,1-.46-.43,16.76,16.76,0,0,0-6.63-9.55.64.64,0,0,0-.7,0c-1.1.81-4.45,4-5.56,13.26a.6.6,0,0,1-.32.46.58.58,0,0,1-.57,0c-2.13-1.22-7.88-5-8.73-10.27a.61.61,0,0,0-.42-.48A.6.6,0,0,0,39,89a37.65,37.65,0,0,0-4.52,6.34.61.61,0,0,1-1.08,0,24.94,24.94,0,0,1-1.89-7.75.62.62,0,0,0-.21-.46.63.63,0,0,0-.5-.12,46.55,46.55,0,0,1-7,1Z"/><path id="Shape-2" data-name="Shape" class="cls-5" d="M23.77,88a.6.6,0,0,1-.43-1.11C26.71,84.1,34.74,74,33.93,58a47.19,47.19,0,0,1,7.22.8s3.62,0,3.62-2.4c0,0,0-4.54-12.12-8.12A1.2,1.2,0,0,1,31.79,47a4.32,4.32,0,0,0-1.1-3.43,1.22,1.22,0,0,0-.94-.39,40.65,40.65,0,0,0-4.12.36c.62-3.08,3.91-13.6,20.34-13.6,16.94,0,27.37,12.1,29.58,15a.32.32,0,0,1,0,.34.3.3,0,0,1-.31.13l-3-.59a.61.61,0,0,0-.66.32.59.59,0,0,0,.13.72,17.1,17.1,0,0,1,4.06,5.19.32.32,0,0,1-.06.31.31.31,0,0,1-.3.09l-3-.75a.58.58,0,0,0-.54.2.57.57,0,0,0-.11.57c2,4.27,8.39,21.89,6.8,45.56a.6.6,0,0,1-.44.55.61.61,0,0,1-.66-.24,33.48,33.48,0,0,0-10.06-9.91.61.61,0,0,0-.61,0,.58.58,0,0,0-.27.54,11.17,11.17,0,0,1-2.95,7.67.62.62,0,0,1-.59.21.61.61,0,0,1-.46-.43,16.76,16.76,0,0,0-6.63-9.55.64.64,0,0,0-.7,0c-1.1.81-4.45,4-5.56,13.26a.6.6,0,0,1-.32.46.58.58,0,0,1-.57,0c-2.13-1.22-7.88-5-8.73-10.27a.61.61,0,0,0-.42-.48A.6.6,0,0,0,39,89a37.65,37.65,0,0,0-4.52,6.34.61.61,0,0,1-1.08,0,24.94,24.94,0,0,1-1.89-7.75.62.62,0,0,0-.21-.46.63.63,0,0,0-.5-.12,46.55,46.55,0,0,1-7,1Z"/><path id="Shape-3" data-name="Shape" class="cls-4" d="M47.76,29.93c-13.47-.64-20.58,5.86-22.13,13.58a28.22,28.22,0,0,1,3.69-.34C30.07,39.9,33.42,30.7,47.76,29.93Z"/><path id="Shape-4" data-name="Shape" class="cls-4" d="M23.35,87a.59.59,0,0,0-.17.68.6.6,0,0,0,.59.38c1.07-.06,2.11-.17,3.06-.3A.59.59,0,0,1,27,87c3.36-2.85,11.3-12.86,10.58-28.67A32.58,32.58,0,0,0,33.93,58C34.75,74,26.71,84.11,23.35,87Z"/><path id="Shape-5" data-name="Shape" class="cls-6" d="M17.07,46.8c2.69-2.7,8.87-3.49,12.68-3.62a1.22,1.22,0,0,1,.94.39A4.32,4.32,0,0,1,31.79,47a1.2,1.2,0,0,0,.86,1.31c12.12,3.57,12.12,8.11,12.12,8.11S43.56,54,29.11,54c-6,0-9.29,1.66-11.1,3.61a8.09,8.09,0,0,0-2.14,6C11.05,55.21,13.46,50.4,17.07,46.8Z"/><path id="Shape-6" data-name="Shape" class="cls-7" d="M15.87,63.64a8.09,8.09,0,0,1,1.42-5.14c-1.42-5.38.59-8.92,3.4-11.73,2.19-2.19,6.65-3.07,9.75-3.39a1.2,1.2,0,0,0-.69-.21c-3.81.14-10,.93-12.68,3.61C13.46,50.4,11.05,55.21,15.87,63.64Z"/><path id="Shape-7" data-name="Shape" class="cls-8" d="M29.11,54c14.45,0,15.66,2.41,15.66,2.41,0,2.4-3.62,2.4-3.62,2.4C22.44,55.45,23.5,63.89,18,57.62,19.82,55.67,23.09,54,29.11,54Z"/><path id="Shape-8" data-name="Shape" class="cls-9" d="M41.92,46.6a3.64,3.64,0,0,1-.66-3.09c2-1.06,2.59-2,4.13-2.68a3.61,3.61,0,1,1-3.47,5.77Z"/></g><g id="Layer_2" data-name="Layer 2"><path id="Shape-9" data-name="Shape" class="cls-10" d="M79.81,97.17c1.58-23.39-4.6-40.51-6.43-45l1.83.46a1.52,1.52,0,0,0,1.52-.48A1.5,1.5,0,0,0,77,50.59a15.27,15.27,0,0,0-2.91-4.17l1,.2a1.51,1.51,0,0,0,1.49-2.41c-2-2.58-12.93-15.48-30.58-15.48-16,0-20.26,9.63-21.31,13.73-3.05.51-6.44,1.5-8.43,3.47C13,49.17,9.32,54.61,14.84,64.24a1.2,1.2,0,0,0,2.23-.74,6.84,6.84,0,0,1,1.05-4.06,5.72,5.72,0,0,0,3.77,1.79c2.22,0,4.19-2,10.84-2,.37,14.06-6.42,23.69-10.27,26.84a1.8,1.8,0,0,0,1.27,3.17,49.75,49.75,0,0,0,6.55-.86,26.7,26.7,0,0,0,1.92,7.46,1.79,1.79,0,0,0,1.56,1.12A1.82,1.82,0,0,0,35.45,96a35.16,35.16,0,0,1,3.61-5.22c1.48,5.12,6.73,8.58,9,9.93a1.76,1.76,0,0,0,1.71,0,1.8,1.8,0,0,0,1-1.41c1-8.09,3.61-11.22,4.81-12.23a15.79,15.79,0,0,1,5.82,8.62,1.81,1.81,0,0,0,3.12.69A12.8,12.8,0,0,0,67.75,89a33.35,33.35,0,0,1,8.76,9,1.81,1.81,0,0,0,3.3-.89ZM21.89,58.82a3.55,3.55,0,0,1-2.15-1.2c2.05-1.58,5.2-2.41,9.37-2.41,9.88,0,13.25,1.12,14.28,1.65a3.24,3.24,0,0,1-2.15.76C27.91,55.21,23.85,58.82,21.89,58.82Zm-4-11.13c2.24-2.21,7.57-3.12,11.87-3.25a3.16,3.16,0,0,1,.8,2.4,2.39,2.39,0,0,0,1.72,2.63,26.07,26.07,0,0,1,9.24,4.31,59.67,59.67,0,0,0-12.45-1c-5.4,0-9.39,1.32-11.94,3.91v.06a8.46,8.46,0,0,0-1.87,2.9C13.08,53.73,15.3,50.26,17.93,47.69ZM70.71,52c.34.77,8.1,18,6.8,43.27A33.12,33.12,0,0,0,68,86.38,1.8,1.8,0,0,0,65.33,88a9.75,9.75,0,0,1-2,6,17.66,17.66,0,0,0-6.81-9.13,1.81,1.81,0,0,0-2,0c-1.4,1-4.74,4.31-5.94,13.25-2.24-1.42-6.67-4.72-7.36-9a1.79,1.79,0,0,0-1.27-1.45,1.81,1.81,0,0,0-1.86.53,40,40,0,0,0-4,5.45c-2-5.6-.7-6.51-2-7.55-1.09-.84-1.54,0-6.68.49,3-3.11,10.15-12.28,9.81-27.4,3.45.22,5.64.75,6,.75,1.67,0,4.82-.76,4.82-3.61,0-.56-.36-5.55-13-9.26a5.59,5.59,0,0,0-1.38-4.36A2.44,2.44,0,0,0,29.67,42c-.59,0-1.45.06-2.41.16,1.29-3.9,5.47-11,18.71-11,13.74,0,23.15,8.43,27,12.61l-.42-.09A1.81,1.81,0,0,0,71,46.78a21.41,21.41,0,0,1,2.72,3l-.94-.23A1.8,1.8,0,0,0,70.69,52Z"/><path id="Shape-10" data-name="Shape" class="cls-10" d="M54.24,43.86c-.07-.16-2-3.83-5.4-4.59a7.06,7.06,0,0,0-6,1.78c-2.63,2.1-4.33,2.36-5.29,2.21a2.26,2.26,0,0,1-1.4-.73,1.2,1.2,0,0,0-1.66-.33c-1.79,1.19,1.22,4.52,5.58,3.16a4.82,4.82,0,0,0,8.71,1.73,4.84,4.84,0,0,0,0-5.34,7.5,7.5,0,0,1,3.33,3.17,1.19,1.19,0,1,0,2.12-1.06Zm-11.88.41c1.7-1,2-1.53,3.19-2.17a2.41,2.41,0,1,1-3.18,2.14Z"/><path id="Shape-11" data-name="Shape" class="cls-10" d="M27.91,49.19a1.2,1.2,0,0,0-1.2-1.2,3,3,0,0,1-1.57-.86,1.21,1.21,0,0,0-1.7,1.71,5.42,5.42,0,0,0,3.27,1.56A1.21,1.21,0,0,0,27.91,49.19Z"/></g></g></svg>