<svg xmlns="http://www.w3.org/2000/svg" width="525" height="358.371" viewBox="0 0 525 358.371">
  <path id="letter" d="M462.5-5.582H62.5A62.525,62.525,0,0,0,0,56.918V290.289a62.523,62.523,0,0,0,62.5,62.5h400a62.523,62.523,0,0,0,62.5-62.5V56.918a62.525,62.525,0,0,0-62.5-62.5Zm-400,25h400a37.655,37.655,0,0,1,36.875,30.5l-236.875,132-236.875-132A37.655,37.655,0,0,1,62.5,19.418Zm400,308.25H62.5a37.613,37.613,0,0,1-37.5-37.5v-212l231.375,129a13.169,13.169,0,0,0,6.125,1.629,11.847,11.847,0,0,0,6.125-1.629L500,78.168v212A37.532,37.532,0,0,1,462.5,327.668Zm0,0" transform="translate(0 5.582)" fill="#ef5455"/>
</svg>
