<svg xmlns="http://www.w3.org/2000/svg" xmlns:xlink="http://www.w3.org/1999/xlink" width="175" height="85" viewBox="0 0 175 85">
  <defs>
    <clipPath id="clip-path">
      <rect id="Rectangle_1" data-name="Rectangle 1" width="175" height="85" transform="translate(6.558 103)" fill="#ef5455"/>
    </clipPath>
  </defs>
  <g id="lupa" transform="translate(-6.558 -103)" clip-path="url(#clip-path)">
    <g id="loupe" transform="translate(50.986 103)">
      <g id="Group_3" data-name="Group 3" transform="translate(41.922 10.195)">
        <g id="Group_2" data-name="Group 2" transform="translate(0)">
          <path id="Path_2" data-name="Path 2" d="M441.822,111.464a1.67,1.67,0,1,1-1.67,1.67A1.671,1.671,0,0,1,441.822,111.464Z" transform="translate(-440.151 -111.464)" fill="#ef5455"/>
        </g>
      </g>
      <g id="Group_5" data-name="Group 5" transform="translate(38.582 16.876)">
        <g id="Group_4" data-name="Group 4">
          <path id="Path_3" data-name="Path 3" d="M149.66,197.866h6.681a1.67,1.67,0,0,1,1.585,1.142l1.756,5.268,1.756-5.268a1.67,1.67,0,0,1,1.585-1.142h2.036l3.024-12.1a1.67,1.67,0,0,1,3.241,0l3.024,12.1h5.377a1.67,1.67,0,1,1,0,3.34h-6.681a1.67,1.67,0,0,1-1.62-1.265l-1.72-6.88-1.72,6.88a1.67,1.67,0,0,1-1.62,1.265h-2.137l-2.96,8.879a1.67,1.67,0,0,1-3.169,0l-2.96-8.879h-5.477a1.67,1.67,0,0,1,0-3.341Z" transform="translate(-147.991 -184.505)" fill="#ef5455"/>
        </g>
      </g>
      <g id="Group_7" data-name="Group 7" transform="translate(0 0)">
        <g id="Group_6" data-name="Group 6">
          <path id="Path_4" data-name="Path 4" d="M2.766,70.97C4.927,69,26.878,48.986,29.979,46.16a30.066,30.066,0,1,1,9.426,9.412c-.025.027-25.129,27.491-25.149,27.511A8.351,8.351,0,1,1,2.766,70.97Zm71.588-22a26.724,26.724,0,1,0-37.842.048A26.71,26.71,0,0,0,74.354,48.969ZM36.458,53.8l.053-.056.13-.13A30.221,30.221,0,0,1,31.93,48.9l-3.842,3.5,5.043,5.043ZM4.817,80.714a5.007,5.007,0,0,0,7.267-.192l18.794-20.6-5.261-5.26L5.007,73.447A5,5,0,0,0,4.817,80.714Z" transform="translate(-0.006 -0.001)" fill="#ef5455"/>
        </g>
      </g>
      <g id="Group_9" data-name="Group 9" transform="translate(32.029 6.75)">
        <g id="Group_8" data-name="Group 8">
          <path id="Path_5" data-name="Path 5" d="M79.016,82.318A1.67,1.67,0,0,1,81.6,84.44,20.054,20.054,0,1,0,91.82,77.831a1.67,1.67,0,0,1-.871-3.225,23.375,23.375,0,1,1-11.933,7.711Z" transform="translate(-73.709 -73.797)" fill="#ef5455"/>
        </g>
      </g>
    </g>
  </g>
</svg>
