<svg xmlns="http://www.w3.org/2000/svg" viewBox="0 0 876.66 555.16"><defs><style>.cls-1{fill:#1d1d1b;}.cls-2{fill:#f9b233;}</style></defs><g id="Warstwa_2" data-name="Warstwa 2"><g id="Layer_1" data-name="Layer 1"><path class="cls-1" d="M170.87,426.78h85.34v21.29H170.87Zm75.8,53.14v21.3h-75.8v-21.3Zm-75.8,74.61V533.24h85.34v21.29Z"/><path class="cls-1" d="M363.36,447.9H320.77V554.53H299.48V426.61h63.88Z"/><path class="cls-1" d="M394.87,426.61h82.45V439H394.87Zm0,57.91h70.87V497H394.87Zm0,57.58h82.45v12.43H394.87Z"/><path class="cls-1" d="M613.25,461.36a41.26,41.26,0,0,1-1.36,11.15,34.55,34.55,0,0,1-3.58,8.52,28.33,28.33,0,0,1-5.11,6.3,35.31,35.31,0,0,1-5.79,4.35A37.31,37.31,0,0,1,581.74,497l31,57.57H598.43L567.6,497H512.75V484.52h66.77a19.87,19.87,0,0,0,6.39-1.28,22.89,22.89,0,0,0,7-4,22.18,22.18,0,0,0,7.91-17.71,24.41,24.41,0,0,0-2-10.57,21.06,21.06,0,0,0-5.11-6.9,19.6,19.6,0,0,0-6.81-3.83,24.25,24.25,0,0,0-7.33-1.19H512.75V426.61h69a34.85,34.85,0,0,1,15.67,4.08,30.66,30.66,0,0,1,5.79,4.09,26.56,26.56,0,0,1,5.11,6.22,34.14,34.14,0,0,1,3.58,8.69A44.69,44.69,0,0,1,613.25,461.36Z"/><path class="cls-1" d="M652.94,426.61H711.2V439H665.54V554.53h-12.6Z"/><polyline class="cls-2" points="411.86 238.65 435.8 214.75 571.05 350.01 554.62 366.44 435.8 247.62 428.29 255.13"/><path class="cls-2" d="M460.06,127.75a11.62,11.62,0,1,0-16.44-16.44"/><path class="cls-2" d="M492.24,90.76a11.63,11.63,0,1,0-11.63,11.63,11.63,11.63,0,0,0,11.63-11.63"/><path class="cls-2" d="M519.06,64a11.63,11.63,0,1,0-11.63,11.63A11.63,11.63,0,0,0,519.06,64"/><path class="cls-2" d="M545.87,37.13a11.63,11.63,0,1,0-11.62,11.63,11.63,11.63,0,0,0,11.62-11.63"/><polyline class="cls-2" points="460.01 127.8 436.07 151.69 300.82 16.43 317.25 0 436.07 118.82 443.58 111.31"/><path class="cls-2" d="M412.17,238.37a11.63,11.63,0,1,0,16.45,16.45"/><path class="cls-2" d="M380,275.41a11.63,11.63,0,1,0,11.63-11.63A11.63,11.63,0,0,0,380,275.41"/><path class="cls-2" d="M353.18,302.23a11.63,11.63,0,1,0,11.63-11.63,11.63,11.63,0,0,0-11.63,11.63"/><path class="cls-2" d="M326.37,329A11.63,11.63,0,1,0,338,317.37,11.62,11.62,0,0,0,326.37,329"/><path class="cls-1" d="M491.45,207a11.63,11.63,0,0,0,16.45-16.44"/><path class="cls-1" d="M528.44,239.2a11.63,11.63,0,1,0-11.62-11.62,11.62,11.62,0,0,0,11.62,11.62"/><path class="cls-1" d="M555.26,266a11.63,11.63,0,1,0-11.63-11.62A11.63,11.63,0,0,0,555.26,266"/><path class="cls-1" d="M582,292.84a11.63,11.63,0,1,0-11.63-11.63A11.63,11.63,0,0,0,582,292.84"/><polyline class="cls-1" points="491.41 207.03 467.47 183.09 602.78 47.83 619.21 64.26 500.33 183.09 507.84 190.59"/><path class="cls-1" d="M380.79,159.14a11.63,11.63,0,0,0-16.45,16.45"/><path class="cls-1" d="M343.8,127a11.63,11.63,0,1,0,11.63,11.62A11.62,11.62,0,0,0,343.8,127"/><path class="cls-1" d="M317,100.15a11.63,11.63,0,1,0,11.63,11.63A11.63,11.63,0,0,0,317,100.15"/><path class="cls-1" d="M290.16,73.33A11.63,11.63,0,1,0,301.79,85a11.63,11.63,0,0,0-11.63-11.63"/><polyline class="cls-1" points="380.78 159.15 404.72 183.09 269.42 318.39 252.99 301.96 371.81 183.09 364.35 175.58"/><path class="cls-1" d="M815.07,497.59v57.57H802.46V497.59l-61.64-61.53,8.91-8.91,59,59,59-59,8.91,8.54Z"/><rect class="cls-1" x="106.64" y="426.61" width="21.29" height="127.93"/><rect class="cls-1" y="426.61" width="21.29" height="127.93"/><polygon class="cls-1" points="109.19 521.84 106.64 554.53 19.09 458.13 21.29 426.61 109.19 521.84"/></g></g></svg>